<?xml version="1.0" encoding="UTF-8" standalone="no"?><!DOCTYPE svg PUBLIC "-//W3C//DTD SVG 1.1//EN" "http://www.w3.org/Graphics/SVG/1.1/DTD/svg11.dtd"><svg width="100%" height="100%" viewBox="0 0 3334 3334" version="1.1" xmlns="http://www.w3.org/2000/svg" xmlns:xlink="http://www.w3.org/1999/xlink" xml:space="preserve" xmlns:serif="http://www.serif.com/" style="fill-rule:evenodd;clip-rule:evenodd;stroke-linejoin:round;stroke-miterlimit:2;"><rect id="_3" x="0" y="0" width="3200" height="3200" style="fill:none;"/><path d="M1009.79,2105.21c-14.792,0 -29.167,6.25 -39.167,17.292c-10.208,10.833 -15.208,25.417 -14.167,40.208c9.584,127.292 33.959,434.584 55,602.917l0,0.417c6.25,40.208 41.459,72.291 81.875,74.791l0.417,0c340.208,12.292 681.25,12.292 1021.67,0l0.208,0c42.083,-2.708 78.125,-37.291 82.5,-79.583c0,-0.625 39.167,-437.292 53.542,-597.708c1.25,-15 -3.75,-29.792 -13.75,-40.834c-10.209,-11.041 -24.584,-17.5 -39.584,-17.5l-1188.54,0Zm1390,-935.416c1.875,-20 -4.792,-40 -18.125,-54.792c-13.542,-14.792 -32.709,-23.333 -52.917,-23.333l-1448.54,-0c-20,-0 -39.166,8.541 -52.708,23.333c-13.542,14.792 -20.208,34.792 -18.125,54.792c17.083,178.958 58.75,616.458 74.375,781.458c3.542,36.667 34.375,64.583 71.042,64.583l1299.58,0c36.667,0 67.292,-27.916 70.833,-64.583c15.834,-165 57.5,-602.5 74.584,-781.458Zm-679.792,98.125c35,13.333 73.125,47.5 81.458,56.666c80.834,89.792 99.584,250.209 7.917,383.125c-68.542,99.375 -195.833,172.709 -317.292,135c-154.166,-47.916 -204.791,-272.916 -96.666,-436.458c55,-83.333 146.041,-146.875 247.916,-151.25c0.417,0 7.917,-0.208 14.584,0l0.416,0c21.875,1.042 42.5,5.417 61.667,12.917Zm44.375,147.5c-2.708,-4.792 -7.708,-7.5 -13.125,-7.5c-5.208,-0 -10.208,2.916 -12.917,7.708c-60,107.083 -123.333,212.083 -185.625,318.125c-2.708,4.792 -2.708,10.625 0,15.417c2.917,4.791 8.125,7.708 13.75,7.5c95.834,-11.25 206.459,-108.542 218.334,-230.834c3.75,-38.75 -3.125,-78.333 -20.417,-110.416Zm-104.167,-48.125c2.709,-4.584 2.709,-10.625 0,-15.417c-2.708,-4.583 -7.916,-7.5 -13.333,-7.5l-0.625,0c-153.75,6.458 -272.083,209.583 -207.083,341.458c3.125,6.667 9.791,10.834 17.083,11.042c7.292,0 14.167,-3.75 17.708,-10.208c60,-107.5 123.75,-212.917 186.25,-319.375Zm-811.041,-413.75c2.5,27.5 25.625,48.541 53.125,48.541l1404.38,0c27.708,0 50.833,-21.041 53.333,-48.541c7.083,-79.167 21.042,-235.209 28.333,-316.875c1.042,-13.542 -3.333,-27.084 -12.5,-37.084c-9.166,-10 -22.291,-15.625 -35.833,-15.625l-1471.04,0c-13.541,0 -26.458,5.625 -35.625,15.625c-9.166,10 -13.75,23.542 -12.5,37.084c7.292,81.666 21.25,237.708 28.334,316.875Zm-10,-459.584c-0,0 1328.12,0 1556.04,-0.208c8.542,0 16.459,-4.375 20.834,-11.875c4.375,-7.5 4.583,-16.458 0.416,-24.167c-13.958,-35 -32.916,-86.666 -39.375,-100.625c-3.541,-0.833 -7.083,-1.25 -10.833,-1.25c-510.208,-11.666 -1020.83,-2.291 -1531.46,-2.291c-18.125,0.416 -28.959,52.291 -51.667,103.125c-13.125,29.166 28.75,36.666 49.375,37.083c2.083,0 6.667,0.208 6.667,0.208Z" style="fill:#fff;"/></svg>